<svg width="50" height="50" viewBox="0 0 50 50" fill="none" xmlns="http://www.w3.org/2000/svg">
  <path
    d="M49.0178 19.9024H47.0242V19.7997H24.7496V29.6995H38.7368C36.6962 35.4624 31.2129 39.5993 24.7496 39.5993C16.5488 39.5993 9.89983 32.9503 9.89983 24.7496C9.89983 16.5488 16.5488 9.89983 24.7496 9.89983C28.535 9.89983 31.9789 11.3279 34.6011 13.6605L41.6016 6.66011C37.1813 2.54054 31.2686 0 24.7496 0C11.0816 0 0 11.0816 0 24.7496C0 38.4175 11.0816 49.4991 24.7496 49.4991C38.4175 49.4991 49.4991 38.4175 49.4991 24.7496C49.4991 23.0901 49.3284 21.4703 49.0178 19.9024Z"
    fill="#FFC107" />
  <path
    d="M2.85205 13.2299L10.9835 19.1933C13.1838 13.7459 18.5123 9.89983 24.748 9.89983C28.5334 9.89983 31.9774 11.3279 34.5996 13.6605L41.6 6.66011C37.1797 2.54054 31.267 0 24.748 0C15.2417 0 6.9976 5.36694 2.85205 13.2299Z"
    fill="#FF3D00" />
  <path
    d="M24.7491 49.5C31.1419 49.5 36.9507 47.0536 41.3425 43.0751L33.6825 36.5931C31.1976 38.4753 28.1089 39.6002 24.7491 39.6002C18.3118 39.6002 12.8458 35.4955 10.7867 29.7672L2.71582 35.9855C6.81187 44.0007 15.1302 49.5 24.7491 49.5Z"
    fill="#4CAF50" />
  <path
    d="M49.0177 19.9024H47.0241V19.7997H24.7495V29.6995H38.7367C37.7567 32.4678 35.9759 34.8548 33.6792 36.5935C33.6804 36.5923 33.6816 36.5923 33.6829 36.591L41.3429 43.0729C40.8008 43.5655 49.4991 37.1244 49.4991 24.7496C49.4991 23.0901 49.3283 21.4703 49.0177 19.9024Z"
    fill="#1976D2" />
</svg>
