<svg width="57" height="57" viewBox="0 0 57 57" fill="none" xmlns="http://www.w3.org/2000/svg">
  <path fill-rule="evenodd" clip-rule="evenodd"
    d="M0 22.0875C0 20.5135 1.27599 19.2375 2.85 19.2375H54.15C55.724 19.2375 57 20.5135 57 22.0875V54.1501C57 55.7241 55.724 57 54.15 57H2.85C1.27599 57 0 55.7241 0 54.1501V22.0875ZM5.7 24.9375V51.3H51.3V24.9375H5.7Z"
    fill="#9098B1" />
  <path fill-rule="evenodd" clip-rule="evenodd"
    d="M28.4999 5.7C21.3217 5.7 15.3187 11.7764 15.3187 19.4968C15.3187 21.0709 14.0427 22.3468 12.4687 22.3468C10.8946 22.3468 9.61865 21.0709 9.61865 19.4968C9.61865 8.8327 17.9732 0 28.4999 0C39.0266 0 47.3812 8.8327 47.3812 19.4968C47.3812 21.0709 46.1052 22.3468 44.5312 22.3468C42.9571 22.3468 41.6812 21.0709 41.6812 19.4968C41.6812 11.7764 35.6781 5.7 28.4999 5.7Z"
    fill="#9098B1" />
  <path fill-rule="evenodd" clip-rule="evenodd"
    d="M28.4999 33.4182C30.0739 33.4182 31.3499 34.6942 31.3499 36.2682V39.4745C31.3499 41.0485 30.0739 42.3245 28.4999 42.3245C26.9259 42.3245 25.6499 41.0485 25.6499 39.4745V36.2682C25.6499 34.6942 26.9259 33.4182 28.4999 33.4182Z"
    fill="#9098B1" />
</svg>
