<svg width="79" height="68" viewBox="0 0 79 68" fill="none" xmlns="http://www.w3.org/2000/svg">
  <path fill-rule="evenodd" clip-rule="evenodd"
    d="M54.285 9.71987C57.1417 9.72276 59.9368 10.5356 62.3347 12.061C64.7325 13.5863 66.6311 15.7594 67.8025 18.3189C68.9738 20.8784 69.3681 23.7158 68.938 26.4901C68.5078 29.2644 67.2715 31.8576 65.3776 33.9585C62.6577 36.9704 39.4654 58.2977 39.4654 58.2977C39.4654 58.2977 16.2241 36.9704 13.5042 33.9106C11.1029 31.2629 9.78188 27.8372 9.79482 24.2911C9.86209 20.4697 11.4546 16.8268 14.2294 14.1477C17.0043 11.4686 20.7394 9.96754 24.6301 9.96754C28.5208 9.96754 32.2557 11.4686 35.0305 14.1477C37.8053 16.8268 39.3981 20.4697 39.4654 24.2911C39.4654 22.377 39.849 20.4815 40.5947 18.7132C41.3403 16.9448 42.4334 15.3381 43.8112 13.9847C45.1889 12.6312 46.8245 11.5575 48.6246 10.825C50.4248 10.0925 52.3543 9.71561 54.3028 9.71561L54.285 9.71987ZM54.3028 3.68096e-05C48.9504 -0.00913822 43.7411 1.69712 39.4654 4.85995C34.5671 1.2885 28.4976 -0.378379 22.424 0.179876C16.3504 0.738131 10.7012 3.48212 6.56236 7.88423C2.42352 12.2863 0.0871754 18.0359 0.0023909 24.0277C-0.0823936 30.0196 2.09037 35.8307 6.10306 40.3441C8.88064 43.4737 27.1746 60.2984 32.7253 65.3806C34.5575 67.0638 36.9723 68 39.4808 68C41.9893 68 44.4039 67.0638 46.236 65.3806C51.7557 60.3027 69.9743 43.5217 72.7874 40.3965C75.9436 36.8942 78.0033 32.5711 78.719 27.9467C79.4348 23.3223 78.7762 18.5932 76.8222 14.3276C74.8683 10.062 71.702 6.44118 67.7041 3.90037C63.7062 1.35955 59.0466 0.00668649 54.285 0.00429336L54.3028 3.68096e-05Z"
    fill="#33A0FF" />
</svg>
