<svg width="32" height="10" viewBox="0 0 32 10" fill="none" xmlns="http://www.w3.org/2000/svg">
  <path
    d="M0.731415 5.19735L1.27547 0.937023L2.12391 1.04644L2.74695 4.19299C2.80405 4.48591 2.84501 4.70486 2.86981 4.84985C2.93803 4.7011 3.04264 4.4832 3.18366 4.19615L4.58207 1.36347L5.34044 1.46127L4.79638 5.7216L4.25303 5.65152L4.70839 2.08575L3.01524 5.49189L2.50675 5.42631L1.73792 1.64062L1.27477 5.26742L0.731415 5.19735ZM7.70123 5.70926C7.48649 5.84895 7.28471 5.94109 7.09591 5.98567C6.90904 6.03049 6.71294 6.03966 6.5076 6.01318C6.16862 5.96946 5.91859 5.85352 5.75754 5.66536C5.59673 5.47526 5.53278 5.25138 5.56568 4.9937C5.58498 4.84259 5.63645 4.7094 5.72008 4.59416C5.80589 4.47722 5.90883 4.38809 6.0289 4.32677C6.1509 4.2657 6.28411 4.22479 6.42852 4.20403C6.53465 4.19015 6.69296 4.18398 6.90344 4.18552C7.33216 4.18961 7.65073 4.16965 7.85916 4.12563C7.87025 4.0542 7.87703 4.00879 7.87951 3.98942C7.90672 3.77631 7.8765 3.61979 7.78884 3.51987C7.67027 3.38445 7.47927 3.29975 7.21583 3.26577C6.96982 3.23405 6.78216 3.25416 6.65287 3.3261C6.52576 3.39636 6.42014 3.53732 6.336 3.749L5.83352 3.61331C5.90797 3.40038 6.007 3.23394 6.13061 3.114C6.25447 2.99212 6.4217 2.90833 6.63231 2.86263C6.84317 2.81499 7.08129 2.80829 7.34667 2.84251C7.61011 2.87649 7.8202 2.93509 7.97694 3.01832C8.13367 3.10155 8.24472 3.19563 8.31008 3.30056C8.37569 3.40354 8.41483 3.52872 8.42752 3.67608C8.43357 3.76745 8.42175 3.92938 8.39206 4.16187L8.303 4.85933C8.2409 5.34561 8.21221 5.65503 8.21694 5.78759C8.22386 5.91845 8.2527 6.04722 8.30347 6.1739L7.75721 6.10345C7.71683 5.98796 7.69817 5.85656 7.70123 5.70926ZM7.80683 4.53539C7.6071 4.5884 7.31394 4.61755 6.92734 4.62283C6.70837 4.6261 6.55185 4.64136 6.4578 4.66862C6.36374 4.69588 6.28768 4.74416 6.2296 4.81347C6.17177 4.88085 6.13705 4.96006 6.12542 5.05112C6.1076 5.19061 6.14506 5.3136 6.23779 5.42009C6.33245 5.52682 6.48148 5.59331 6.68487 5.61954C6.88633 5.64552 7.07108 5.62504 7.23911 5.55809C7.4074 5.4892 7.53812 5.38298 7.63127 5.23942C7.70254 5.12848 7.75289 4.95774 7.78234 4.72719L7.80683 4.53539ZM8.85986 5.30925L9.38745 5.29458C9.39004 5.50563 9.45014 5.67486 9.56776 5.80228C9.68731 5.92995 9.86622 6.00915 10.1045 6.03988C10.3447 6.07086 10.5291 6.0454 10.6577 5.96352C10.7865 5.87971 10.8594 5.77193 10.8762 5.64018C10.8913 5.522 10.8518 5.42239 10.7578 5.34134C10.6921 5.2856 10.5214 5.20352 10.2458 5.09512C9.87464 4.94878 9.61893 4.83112 9.47868 4.74214C9.34061 4.65147 9.24076 4.53914 9.17911 4.40516C9.11964 4.26949 9.09956 4.12609 9.11886 3.97497C9.13642 3.83742 9.18362 3.71452 9.26045 3.60627C9.33947 3.49633 9.43816 3.40961 9.55654 3.3461C9.64556 3.29654 9.76241 3.26041 9.90708 3.23771C10.0539 3.21332 10.2077 3.2115 10.3685 3.23223C10.6107 3.26346 10.8183 3.32569 10.9915 3.41892C11.1666 3.5124 11.2901 3.62481 11.3619 3.75618C11.434 3.8856 11.4737 4.05221 11.4812 4.25601L10.9609 4.2598C10.9579 4.09794 10.906 3.9652 10.805 3.86159C10.706 3.75823 10.5548 3.69343 10.3514 3.6672C10.1112 3.63623 9.93466 3.65383 9.82185 3.72003C9.70904 3.78622 9.64584 3.87259 9.63223 3.97915C9.62357 4.04696 9.63708 4.11073 9.67277 4.17048C9.70821 4.23216 9.7691 4.28727 9.85545 4.33583C9.90527 4.36194 10.0536 4.42637 10.3004 4.52909C10.6577 4.67561 10.905 4.79021 11.0421 4.87288C11.1814 4.95386 11.285 5.05978 11.353 5.19064C11.4209 5.3215 11.4435 5.47605 11.4208 5.65429C11.3985 5.82866 11.3261 5.98672 11.2037 6.12847C11.0834 6.26853 10.9219 6.36882 10.7193 6.42933C10.5169 6.48791 10.2946 6.50158 10.0525 6.47035C9.65149 6.41864 9.35607 6.29586 9.1662 6.10202C8.97828 5.90842 8.87616 5.64416 8.85986 5.30925ZM13.1284 6.32057L13.145 6.79239C12.9938 6.8044 12.8601 6.80291 12.7439 6.78792C12.554 6.76344 12.4107 6.71442 12.3137 6.64087C12.2168 6.56732 12.1532 6.47936 12.123 6.377C12.093 6.2727 12.098 6.06362 12.1381 5.74976L12.3648 3.97414L11.9813 3.92467L12.0332 3.51782L12.4168 3.56729L12.5144 2.80299L13.0746 2.55621L12.9369 3.63436L13.4628 3.70219L13.4109 4.10904L12.8849 4.04122L12.6545 5.8459C12.6354 5.99508 12.6319 6.0921 12.6439 6.13697C12.6578 6.18209 12.6835 6.21987 12.721 6.2503C12.7604 6.28098 12.8188 6.30132 12.8963 6.31131C12.9544 6.31881 13.0318 6.3219 13.1284 6.32057ZM15.8223 6.13333L16.3542 6.26987C16.2286 6.57467 16.0395 6.79939 15.7867 6.94403C15.5339 7.08867 15.2283 7.13787 14.87 7.09166C14.4186 7.03345 14.078 6.84871 13.848 6.53744C13.6202 6.22448 13.5383 5.8171 13.6024 5.31532C13.6687 4.7961 13.8538 4.41036 14.1577 4.1581C14.4617 3.90584 14.8267 3.80719 15.2529 3.86215C15.6655 3.91537 15.9846 4.0993 16.2102 4.41394C16.4358 4.72859 16.5161 5.14068 16.4511 5.65022C16.4471 5.68121 16.4402 5.72759 16.4303 5.78933L14.1291 5.49255C14.1052 5.83409 14.1679 6.10606 14.3173 6.30848C14.4667 6.51089 14.6702 6.62871 14.9278 6.66193C15.1196 6.68666 15.2897 6.6574 15.4382 6.57414C15.5866 6.49089 15.7147 6.34395 15.8223 6.13333ZM14.2131 5.06619L15.9361 5.28841C15.946 5.0258 15.905 4.8226 15.8131 4.6788C15.6723 4.45583 15.4691 4.32723 15.2038 4.293C14.9636 4.26203 14.7509 4.31632 14.5657 4.45589C14.3824 4.59571 14.2649 4.79914 14.2131 5.06619ZM16.8896 7.28123L17.2837 4.19496L17.7544 4.25567L17.6947 4.72355C17.8427 4.52011 17.9716 4.39002 18.0812 4.33326C18.1928 4.27675 18.3096 4.25637 18.4316 4.27211C18.6079 4.29484 18.7799 4.37414 18.9476 4.50999L18.7055 4.97207C18.5873 4.88002 18.4643 4.82576 18.3364 4.80927C18.2222 4.79453 18.115 4.81616 18.0151 4.87417C17.9154 4.93023 17.8384 5.0168 17.784 5.13386C17.7022 5.31235 17.6471 5.51203 17.6189 5.73289L17.4126 7.34868L16.8896 7.28123ZM22.1739 6.4444L22.7194 6.6595C22.5421 7.10729 22.2839 7.43339 21.9447 7.63778C21.6077 7.84048 21.2174 7.91323 20.7738 7.85602C20.3148 7.79681 19.9528 7.6556 19.6879 7.43239C19.4252 7.20749 19.241 6.90802 19.1351 6.53399C19.0313 6.16021 19.0053 5.7699 19.0573 5.36305C19.1139 4.91938 19.2475 4.54374 19.4581 4.23612C19.6709 3.92681 19.9441 3.70702 20.2777 3.57675C20.6136 3.44479 20.9694 3.40305 21.3452 3.45151C21.7713 3.50647 22.1158 3.66118 22.3787 3.91565C22.6415 4.17011 22.805 4.50135 22.8691 4.90938L22.2974 4.96858C22.2382 4.64586 22.1237 4.40167 21.9538 4.236C21.784 4.07034 21.5567 3.96915 21.2719 3.93242C20.9446 3.89021 20.6605 3.93332 20.4196 4.06177C20.1807 4.19047 19.9997 4.38178 19.8767 4.63571C19.7539 4.88771 19.6746 5.15417 19.6388 5.43509C19.5925 5.79738 19.6043 6.12089 19.6743 6.40561C19.7465 6.68865 19.8854 6.91137 20.0911 7.07378C20.2968 7.23619 20.5294 7.33414 20.789 7.36761C21.1047 7.40833 21.3836 7.35175 21.6258 7.19787C21.8679 7.04398 22.0506 6.79283 22.1739 6.4444ZM25.2396 7.97113C25.0248 8.11083 24.8231 8.20297 24.6342 8.24754C24.4474 8.29237 24.2513 8.30154 24.0459 8.27506C23.707 8.23134 23.4569 8.1154 23.2959 7.92724C23.1351 7.73714 23.0711 7.51325 23.104 7.25558C23.1233 7.10446 23.1748 6.97128 23.2584 6.85603C23.3442 6.7391 23.4472 6.64997 23.5672 6.58865C23.6892 6.52758 23.8224 6.48667 23.9669 6.4659C24.073 6.45202 24.2313 6.44585 24.4418 6.4474C24.8705 6.45149 25.1891 6.43152 25.3975 6.38751C25.4086 6.31607 25.4154 6.27067 25.4178 6.2513C25.4451 6.03818 25.4148 5.88167 25.3272 5.78174C25.2086 5.64632 25.0176 5.56163 24.7542 5.52765C24.5082 5.49592 24.3205 5.51603 24.1912 5.58798C24.0641 5.65823 23.9585 5.7992 23.8743 6.01088L23.3719 5.87518C23.4463 5.66225 23.5453 5.49582 23.6689 5.37588C23.7928 5.254 23.96 5.17021 24.1707 5.12451C24.3815 5.07687 24.6196 5.07016 24.885 5.10439C25.1485 5.13836 25.3585 5.19697 25.5153 5.2802C25.672 5.36343 25.7831 5.45751 25.8484 5.56243C25.914 5.66542 25.9532 5.7906 25.9659 5.93796C25.9719 6.02933 25.9601 6.19126 25.9304 6.42374L25.8413 7.1212C25.7792 7.60749 25.7506 7.91691 25.7553 8.04946C25.7622 8.18033 25.791 8.3091 25.8418 8.43577L25.2956 8.36532C25.2552 8.24983 25.2365 8.11844 25.2396 7.97113ZM25.3452 6.79727C25.1454 6.85028 24.8523 6.87943 24.4657 6.88471C24.2467 6.88798 24.0902 6.90324 23.9961 6.9305C23.9021 6.95775 23.826 7.00604 23.7679 7.07535C23.7101 7.14272 23.6754 7.22194 23.6638 7.313C23.6459 7.45249 23.6834 7.57548 23.7761 7.68196C23.8708 7.7887 24.0198 7.85518 24.2232 7.88141C24.4247 7.9074 24.6094 7.88691 24.7775 7.81997C24.9457 7.75108 25.0765 7.64486 25.1696 7.5013C25.2409 7.39036 25.2912 7.21962 25.3207 6.98907L25.3452 6.79727ZM26.484 8.51859L26.8781 5.43232L27.3488 5.49303L27.289 5.96091C27.4371 5.75747 27.5659 5.62738 27.6756 5.57062C27.7871 5.51412 27.904 5.49373 28.026 5.50947C28.2023 5.53221 28.3743 5.6115 28.542 5.74735L28.2999 6.20943C28.1817 6.11739 28.0587 6.06312 27.9308 6.04663C27.8165 6.03189 27.7094 6.05352 27.6095 6.11153C27.5098 6.1676 27.4327 6.25416 27.3784 6.37122C27.2965 6.54971 27.2415 6.74939 27.2133 6.97025L27.007 8.58604L26.484 8.51859ZM30.4734 9.03309L30.5231 8.64368C30.2884 8.92455 29.9812 9.04051 29.6015 8.99154C29.3555 8.95982 29.1375 8.86278 28.9476 8.70043C28.7595 8.53833 28.6239 8.32883 28.5405 8.07191C28.4593 7.81331 28.4389 7.52611 28.4792 7.21032C28.5186 6.90227 28.6055 6.62991 28.7401 6.39323C28.8749 6.15461 29.0535 5.9817 29.276 5.8745C29.4984 5.7673 29.7364 5.73006 29.9902 5.76279C30.1762 5.78677 30.3367 5.84785 30.4718 5.94602C30.6072 6.04225 30.7124 6.1592 30.7874 6.29687L30.9826 4.76827L31.5027 4.83535L30.9586 9.09567L30.4734 9.03309ZM29.0168 7.27965C28.9663 7.67487 29.0119 7.98107 29.1535 8.19823C29.2951 8.41539 29.4792 8.53858 29.7058 8.56781C29.9344 8.59729 30.14 8.52928 30.3226 8.36378C30.5073 8.19658 30.6242 7.92119 30.6732 7.53758C30.7272 7.11523 30.6854 6.79476 30.5479 6.57616C30.4104 6.35756 30.2226 6.23289 29.9843 6.20217C29.7518 6.17219 29.545 6.24201 29.3639 6.41164C29.1847 6.58152 29.069 6.87086 29.0168 7.27965Z"
    fill="white" />
</svg>
