<svg width="88" height="88" viewBox="0 0 88 88" fill="none" xmlns="http://www.w3.org/2000/svg">
  <path fill-rule="evenodd" clip-rule="evenodd"
    d="M7.3335 19.2499C7.3335 17.2249 8.97512 15.5833 11.0002 15.5833H77.0002C79.0252 15.5833 80.6668 17.2249 80.6668 19.2499V68.7499C80.6668 70.775 79.0252 72.4166 77.0002 72.4166H11.0002C8.97512 72.4166 7.3335 70.775 7.3335 68.7499V19.2499ZM14.6668 22.9166V65.0832H73.3335V22.9166H14.6668Z"
    fill="#9098B1" />
  <path fill-rule="evenodd" clip-rule="evenodd"
    d="M8.21626 16.8638C9.53413 15.3262 11.8489 15.1482 13.3864 16.466L44.0002 42.7059L74.614 16.466C76.1516 15.1482 78.4663 15.3262 79.7842 16.8638C81.1021 18.4013 80.924 20.7161 79.3864 22.034L46.3864 50.3191C45.0133 51.496 42.9871 51.496 41.614 50.3191L8.61402 22.034C7.07648 20.7161 6.8984 18.4013 8.21626 16.8638Z"
    fill="#9098B1" />
</svg>
