<svg width="39" height="39" viewBox="0 0 39 39" fill="none" xmlns="http://www.w3.org/2000/svg">
  <path fill-rule="evenodd" clip-rule="evenodd"
    d="M38.7122 32.5234C37.7695 30.0112 36.3242 27.7181 34.4647 25.7846C32.6052 23.8511 30.3707 22.318 27.8982 21.2793C29.2428 20.1742 30.3286 18.7872 31.079 17.2162C31.8293 15.6453 32.226 13.9286 32.2409 12.1874C32.1923 9.13596 31.0155 6.21081 28.9377 3.97701C26.8599 1.7432 24.0287 0.359238 20.9909 0.0925436C19.9961 -0.0308479 18.99 -0.0308479 17.9952 0.0925436C14.9591 0.361517 12.1302 1.74648 10.0545 3.98006C7.97874 6.21363 6.80325 9.1375 6.75491 12.1874C6.76937 13.9287 7.16582 15.6455 7.91621 17.2165C8.66661 18.7876 9.75269 20.1745 11.0976 21.2793C8.62464 22.3176 6.38963 23.8505 4.52967 25.784C2.66972 27.7175 1.22399 30.0109 0.281151 32.5234C0.0151935 33.2581 -0.0637591 34.0474 0.0514771 34.8202C0.166713 35.5931 0.472499 36.325 0.941185 36.9499C1.42754 37.5918 2.0568 38.1113 2.77895 38.4672C3.5011 38.8231 4.29626 39.0055 5.10118 38.9999H33.9117C34.7159 39.0053 35.5103 38.8228 36.2316 38.4669C36.9529 38.111 37.5814 37.5916 38.0668 36.9499C38.5343 36.3243 38.8382 35.5917 38.9509 34.8187C39.0636 34.0457 38.9816 33.2567 38.7122 32.5234ZM11.8526 12.1874C11.8863 10.3392 12.6081 8.57012 13.8767 7.22658C15.1453 5.88304 16.8693 5.0618 18.7112 4.92365C19.2361 4.85864 19.767 4.85864 20.2919 4.92365C21.6772 5.1362 22.9725 5.74184 24.0243 6.66868C25.0761 7.59552 25.8404 8.80475 26.2264 10.153C26.6125 11.5013 26.6041 12.9321 26.2024 14.2757C25.8007 15.6194 25.0225 16.8197 23.9599 17.7342C22.8974 18.6487 21.5952 19.2392 20.2076 19.4356C18.8199 19.632 17.4051 19.426 16.1308 18.8423C14.8565 18.2585 13.7763 17.3213 13.018 16.1418C12.2598 14.9623 11.8553 13.5899 11.8526 12.1874ZM5.09628 34.1249C6.25055 31.2464 8.23943 28.7796 10.8068 27.0422C13.3741 25.3048 16.4024 24.3763 19.5016 24.3763C22.6008 24.3763 25.629 25.3048 28.1964 27.0422C30.7637 28.7796 32.7526 31.2464 33.9068 34.1249H5.10118H5.09628Z"
    fill="#22262A" />
</svg>
