<svg width="62" height="34" viewBox="0 0 62 34" fill="none" xmlns="http://www.w3.org/2000/svg">
  <path
    d="M40.5344 33.2282L44.9752 25.1601L42.5019 5.78366H48.552L49.529 17.2513L55.4494 5.78366H61.6943L47.3155 33.2282H40.5344ZM21.5639 18.7549C22.4965 14.0379 27.0298 12.5409 33.7324 12.5409C34.1321 10.4432 32.8034 9.91726 30.5418 9.99622C28.5479 10.0932 26.5877 10.5505 24.7549 11.3456L25.2841 6.63187C27.4847 5.94475 29.7638 5.54171 32.0656 5.43331C36.2539 5.35778 40.91 6.7015 39.8476 12.1704L37.2545 25.0444H31.2045L31.6006 23.0932C30.8984 23.8215 30.059 24.4029 29.1311 24.8014C28.2031 25.1999 27.2056 25.4083 26.1965 25.4149C23.3303 25.4012 20.7785 23.5256 21.5676 18.7398L21.5639 18.7549ZM27.7507 18.4549C27.5603 18.7259 27.4521 19.047 27.4392 19.3785C27.4263 19.71 27.5094 20.0388 27.6782 20.324C27.8469 20.6091 28.094 20.8393 28.39 20.9861C28.6861 21.1329 29.0184 21.1893 29.3462 21.1504C30.0947 21.1839 30.8298 20.9445 31.4167 20.4765C32.0036 20.0085 32.4026 19.3442 32.5402 18.6041C32.6193 18.0255 32.7333 17.4522 32.8817 16.8875H31.3513C30.6696 16.824 29.9831 16.9327 29.3542 17.2043C28.7252 17.476 28.174 17.9007 27.7507 18.4415V18.4549ZM0.725098 25.0444L5.72638 0.421147H17.0238C18.0309 0.412178 19.0255 0.6464 19.9242 1.1034C20.8228 1.56041 21.5993 2.22712 22.1886 3.04792C22.7778 3.86873 23.1626 4.81943 23.3107 5.82054C23.4589 6.82164 23.3658 7.84343 23.0397 8.80101C22.7145 11.0526 21.5914 13.1105 19.8766 14.596C18.1618 16.0815 15.9708 16.8962 13.7068 16.8875H8.98204L7.35942 25.0444H0.725098ZM9.92491 12.1704H13.0338C13.9432 12.0975 14.8042 11.7284 15.4875 11.121C16.1708 10.5136 16.6394 9.69916 16.8224 8.80101C16.9658 8.43145 17.0184 8.03368 16.9758 7.63933C16.9333 7.24498 16.7969 6.86641 16.578 6.53632C16.3591 6.20623 16.0643 5.93473 15.7185 5.74343C15.3728 5.55212 14.9859 5.44597 14.5913 5.43666H11.3461L9.92491 12.1704Z"
    fill="#3284AE" />
</svg>
