<svg width="63" height="62" viewBox="0 0 63 62" fill="none" xmlns="http://www.w3.org/2000/svg">
  <path
    d="M31.6022 61.9686C26.3717 61.968 21.2283 60.6235 16.6605 58.0628C12.0927 55.5021 8.25227 51.8101 5.50405 47.3378C2.75583 42.8655 1.19112 37.7619 0.958562 32.5108C0.726008 27.2597 1.83342 22.0352 4.17543 17.3352C6.51744 12.6353 10.0164 8.61644 14.3398 5.65805C18.6632 2.69966 23.6673 0.900527 28.877 0.432998C34.0868 -0.034532 39.3291 0.844268 44.1057 2.98601C48.8823 5.12776 53.0347 8.46148 56.1683 12.67H52.069V14.7302H57.5791C57.9924 15.3859 58.3821 16.0652 58.7442 16.7519H50.019V18.812H59.7313C60.0319 19.4987 60.302 20.1856 60.5411 20.8722H47.9693V22.9307H61.1833C62.8442 29.021 62.6153 35.4761 60.5274 41.4321H47.9693V43.4923H59.7175C59.4101 44.203 59.079 44.8649 58.7442 45.5206H50.019V47.5808H57.5553C57.1009 48.3018 56.6262 48.9922 56.1445 49.641H52.069V51.7012H54.4602C51.5811 54.9296 48.0577 57.5123 44.1194 59.2815C40.1811 61.0506 35.9161 61.9657 31.6022 61.9686Z"
    fill="#E63737" />
</svg>
