<svg width="52" height="26" viewBox="0 0 52 26" fill="none" xmlns="http://www.w3.org/2000/svg">
  <path
    d="M21.3798 18.7396C22.3227 14.0226 26.9036 12.5306 33.6985 12.5306C34.1699 10.4295 32.8242 9.91042 30.5354 9.98595C28.4988 10.0912 26.4952 10.5467 24.6117 11.332L25.1513 6.61825C27.4052 5.9397 29.7329 5.53803 32.0829 5.42304C36.3225 5.34751 40.9648 6.68963 39.8887 12.1551L37.2652 25.0258H31.208L31.6113 23.083C30.1438 24.5562 28.158 25.3908 26.0837 25.4046C23.1526 25.4012 20.5701 23.5288 21.3798 18.7396ZM27.6417 18.4413C27.4576 18.7213 27.3574 19.0494 27.3535 19.385C27.3497 19.7207 27.4424 20.0495 27.62 20.3338C27.7977 20.6181 28.0527 20.8453 28.3552 20.9876C28.6578 21.1298 28.995 21.1818 29.326 21.1368C30.0701 21.1702 30.8005 20.9301 31.3824 20.4629C31.9642 19.9956 32.3575 19.3321 32.4891 18.5955C32.6223 17.9947 32.691 17.4694 32.8311 16.8789H31.3515C30.6514 16.8078 29.9447 16.9136 29.2952 17.1857C28.6457 17.4578 28.0738 17.888 27.6313 18.4379L27.6417 18.4413ZM40.063 25.0258L45.0714 0.328735H51.2887L46.2157 25.0258H40.063ZM0.541016 25.0258L5.53563 0.407522H16.8089C17.8131 0.404794 18.8035 0.642658 19.6979 1.10151C20.5924 1.56037 21.3651 2.22707 21.9519 3.04603C22.5387 3.865 22.9226 4.81231 23.072 5.81027C23.2215 6.80822 23.132 7.82779 22.811 8.78404C22.4855 11.0436 21.3559 13.1075 19.6316 14.5941C17.9074 16.0807 15.7053 16.8891 13.4335 16.8689H8.77752L7.08985 25.0224L0.541016 25.0258ZM9.7204 12.1551H12.7538C13.6705 12.0842 14.5403 11.7191 15.2338 11.1124C15.9273 10.5058 16.4078 9.69005 16.6041 8.78739C16.7401 8.41279 16.785 8.01126 16.7355 7.61565C16.6859 7.22004 16.543 6.84165 16.3189 6.51264C16.0947 6.18363 15.7955 5.91431 15.4465 5.72477C15.0974 5.53524 14.7085 5.43112 14.3118 5.42304H11.0732L9.7204 12.1551Z"
    fill="#3CA9C7" />
</svg>
