<svg width="131" height="87" viewBox="0 0 131 87" fill="none" xmlns="http://www.w3.org/2000/svg">
  <path
    d="M5.69263 0.681885H125.199C125.961 0.697061 126.713 0.86396 127.412 1.17137C128.111 1.47877 128.743 1.92104 129.271 2.47386C129.8 3.02667 130.215 3.67921 130.493 4.39323C130.77 5.10725 130.905 5.86967 130.89 6.63614V81.0509C130.92 82.5982 130.337 84.0941 129.27 85.2098C128.203 86.3255 126.738 86.9694 125.199 87.0001H5.69263C4.15288 86.9694 2.68819 86.3255 1.62088 85.2098C0.553567 84.0941 -0.0290136 82.5982 0.00118376 81.0509V6.63614C-0.0142228 5.86967 0.120892 5.10725 0.398601 4.39323C0.67631 3.67921 1.0911 3.02667 1.61963 2.47386C2.14815 1.92104 2.77985 1.47877 3.47869 1.17137C4.17753 0.86396 4.92993 0.697061 5.69263 0.681885Z"
    fill="#353A40" />
</svg>
