<svg width="90" height="31" viewBox="0 0 90 31" fill="none" xmlns="http://www.w3.org/2000/svg">
  <path
    d="M83.16 30.1384L82.2992 25.6928H72.9593L71.4255 30.1384H63.7662L74.722 2.45078C74.9768 1.76419 75.4436 1.17704 76.054 0.776146C76.6644 0.37525 77.3864 0.181901 78.1145 0.222964H84.0211L89.9035 30.1417L83.16 30.1384ZM78.9377 8.35809L75.0773 19.5542H81.1103L78.9377 8.35809ZM54.0438 8.75034C54.0438 12.0186 64.2924 12.718 64.2924 20.2331C64.2924 27.47 56.7255 30.1317 51.7139 30.1317C48.8655 30.179 46.0393 29.6219 43.4195 28.4973L44.5125 22.0083C47.5187 24.4801 56.6368 25.1846 56.6368 21.2606C56.6368 17.3366 46.4737 17.2433 46.4737 9.77289C46.4737 1.83561 55.1303 0.201172 58.772 0.201172C61.0276 0.259284 63.2588 0.685436 65.3788 1.46176L64.33 7.67248C61.1939 5.91474 54.0372 5.49546 54.0372 8.76375L54.0438 8.75034ZM31.5516 30.1384L36.1429 0.217935H43.4912L38.8998 30.1384H31.5516ZM13.9343 30.1384L7.55934 4.17738C8.6855 4.88423 9.75993 5.67139 10.7741 6.53259C13.8385 9.16778 16.1701 12.5559 17.5415 16.3675L18.3718 20.7996L25.3785 0.222964H33.2868L21.5966 30.1417L13.9343 30.1384ZM0.97297 1.03933L0.631433 0.937071L0.97297 1.03933ZM0.221505 0.816377L0.0576172 0.771117L0.221505 0.816377ZM2.02886 1.39973L1.59141 1.24551L2.02886 1.39973ZM7.1223 3.88905C6.89456 3.74715 6.66656 3.61049 6.43881 3.48003C6.65745 3.63109 6.88291 3.76162 7.11522 3.90581L7.1223 3.88905ZM5.36625 2.89332C5.16811 2.79033 4.96338 2.68101 4.76866 2.58488C4.95655 2.69817 5.15802 2.80709 5.35957 2.91009L5.36625 2.89332ZM3.53846 2.01158L3.13562 1.83557L3.53846 2.01158Z"
    fill="#494CA3" />
</svg>
