<svg width="132" height="87" viewBox="0 0 132 87" fill="none" xmlns="http://www.w3.org/2000/svg">
  <path
    d="M6.46404 0H126.031C126.794 0.0147307 127.547 0.180597 128.246 0.487806C128.945 0.795015 129.577 1.23744 130.106 1.7903C130.635 2.34316 131.05 2.99543 131.328 3.70967C131.606 4.42391 131.741 5.18582 131.726 5.95257V80.3623C131.741 81.129 131.606 81.8909 131.328 82.6052C131.05 83.3194 130.635 83.9717 130.106 84.5245C129.577 85.0774 128.945 85.5198 128.246 85.827C127.547 86.1342 126.794 86.3001 126.031 86.3148H6.46404C5.70104 86.3001 4.94849 86.1342 4.24926 85.827C3.55003 85.5198 2.91783 85.0774 2.38895 84.5245C1.86006 83.9717 1.44459 83.3194 1.16667 82.6052C0.888746 81.8909 0.753848 81.129 0.769251 80.3623V5.95257C0.753848 5.18582 0.888746 4.42391 1.16667 3.70967C1.44459 2.99543 1.86006 2.34316 2.38895 1.7903C2.91783 1.23744 3.55003 0.795015 4.24926 0.487806C4.94849 0.180597 5.70104 0.0147307 6.46404 0Z"
    fill="url(#paint0_linear_3399_59)" />
  <defs>
    <linearGradient id="paint0_linear_3399_59" x1="66.2476" y1="86.3148" x2="66.2476" y2="0"
      gradientUnits="userSpaceOnUse">
      <stop stop-color="#E59703" />
      <stop offset="0.231" stop-color="#E59703" />
      <stop offset="0.234" stop-color="white" />
      <stop offset="0.761" stop-color="white" />
      <stop offset="0.766" stop-color="#5457BB" />
      <stop offset="1" stop-color="#5457BB" />
    </linearGradient>
  </defs>
</svg>
