<svg width="63" height="62" viewBox="0 0 63 62" fill="none" xmlns="http://www.w3.org/2000/svg">
  <path
    d="M0.929199 31.1426C0.930551 25.0463 2.7307 19.0874 6.10188 14.0191C9.47306 8.95081 14.264 5.00096 19.8689 2.66879C25.4737 0.336626 31.6408 -0.272861 37.5904 0.91705C43.5401 2.10696 49.0052 5.04294 53.2945 9.35391C57.5838 13.6649 60.5048 19.1572 61.6882 25.1364C62.8716 31.1155 62.2639 37.3132 59.9425 42.9455C57.6212 48.5778 53.6905 53.3911 48.6468 56.7784C43.6031 60.1657 37.673 61.9743 31.6066 61.9749C27.5777 61.9749 23.5881 61.1776 19.8659 59.6281C16.1438 58.0786 12.7617 55.8078 9.913 52.9447C7.06428 50.0816 4.80473 46.6829 3.26324 42.9421C1.72176 39.2014 0.928751 35.1914 0.929199 31.1426Z"
    fill="#FFAF38" />
</svg>
