<svg width="87" height="71" viewBox="0 0 87 71" fill="none" xmlns="http://www.w3.org/2000/svg">
  <path
    d="M87 8.41707C83.7284 9.8507 80.2683 10.8038 76.7262 11.247C80.4606 9.02325 83.253 5.50115 84.5742 1.34811C81.0819 3.428 77.2615 4.89391 73.2779 5.68263C70.8332 3.0554 67.6578 1.22785 64.1647 0.437759C60.6715 -0.352328 57.0225 -0.0683735 53.6922 1.25268C50.362 2.57373 47.5049 4.87072 45.4925 7.84477C43.4801 10.8188 42.4057 14.3323 42.409 17.9279C42.396 19.3005 42.5356 20.6702 42.8252 22.0116C35.73 21.6618 28.7882 19.8123 22.4536 16.5839C16.119 13.3554 10.5342 8.82087 6.06437 3.27656C3.76881 7.21641 3.05782 11.8877 4.07664 16.3363C5.09545 20.7848 7.7672 24.6749 11.5461 27.2119C8.72369 27.1366 5.96066 26.381 3.48999 25.0088V25.2058C3.49381 29.339 4.91436 33.3448 7.5129 36.55C10.1114 39.7553 13.7295 41.9646 17.7591 42.8065C16.2327 43.2131 14.6592 43.4139 13.08 43.4036C11.9467 43.4243 10.8145 43.3222 9.703 43.0991C10.854 46.6512 13.0726 49.7581 16.0536 51.9926C19.0346 54.227 22.6317 55.4793 26.3503 55.5772C20.0445 60.5249 12.2712 63.2109 4.26884 63.2074C2.84215 63.2174 1.41628 63.1357 0 62.9626C8.15222 68.2374 17.6512 71.0286 27.3491 70.9988C34.0274 71.0456 40.6483 69.7594 46.8273 67.215C53.0064 64.6706 58.6204 60.9186 63.3433 56.1771C68.0662 51.4355 71.8038 45.7988 74.339 39.5944C76.8743 33.3901 78.1566 26.7417 78.1115 20.0355C78.1115 19.2414 78.1115 18.4772 78.0461 17.7189C81.5696 15.1913 84.604 12.039 87 8.41707Z"
    fill="#03A9F4" />
</svg>
